<svg xmlns="http://www.w3.org/2000/svg" width="1440" height="980" viewBox="0 0 1440 980" role="img" aria-labelledby="title desc">
  <title id="title">Sanitized MikroTik Backup dashboard screenshot</title>
  <desc id="desc">A redacted example of the current dashboard layout with router and switch cards, system resources, search, and filter tabs.</desc>
  <defs>
    <filter id="shadow" x="-10%" y="-10%" width="120%" height="140%">
      <feDropShadow dx="0" dy="8" stdDeviation="12" flood-color="#0f172a" flood-opacity="0.12"/>
    </filter>
    <linearGradient id="sidebar" x1="0" x2="0" y1="0" y2="1">
      <stop offset="0" stop-color="#0f172a"/>
      <stop offset="1" stop-color="#1e293b"/>
    </linearGradient>
    <linearGradient id="accent" x1="0" x2="1" y1="0" y2="1">
      <stop offset="0" stop-color="#2563eb"/>
      <stop offset="1" stop-color="#0ea5e9"/>
    </linearGradient>
  </defs>

  <rect width="1440" height="980" fill="#f8fafc"/>

  <rect width="272" height="980" fill="url(#sidebar)"/>
  <circle cx="50" cy="46" r="20" fill="#2563eb"/>
  <rect x="82" y="28" width="88" height="14" rx="7" fill="#f8fafc"/>
  <rect x="82" y="51" width="118" height="10" rx="5" fill="#94a3b8"/>

  <g opacity="0.96">
    <rect x="24" y="116" width="224" height="44" rx="8" fill="#2563eb"/>
    <rect x="66" y="132" width="88" height="12" rx="6" fill="#ffffff"/>
    <circle cx="44" cy="138" r="8" fill="#bfdbfe"/>
    <rect x="24" y="172" width="224" height="44" rx="8" fill="transparent"/>
    <rect x="66" y="188" width="74" height="12" rx="6" fill="#cbd5e1"/>
    <circle cx="44" cy="194" r="8" fill="#64748b"/>
    <rect x="24" y="228" width="224" height="44" rx="8" fill="transparent"/>
    <rect x="66" y="244" width="84" height="12" rx="6" fill="#cbd5e1"/>
    <circle cx="44" cy="250" r="8" fill="#64748b"/>
  </g>

  <rect x="20" y="840" width="232" height="78" rx="8" fill="#172033" stroke="#334155"/>
  <circle cx="54" cy="879" r="19" fill="url(#accent)"/>
  <rect x="84" y="860" width="84" height="12" rx="6" fill="#f8fafc"/>
  <rect x="84" y="882" width="54" height="16" rx="8" fill="#1d4ed8" stroke="#93c5fd"/>
  <rect x="20" y="928" width="232" height="34" rx="8" fill="#2563eb"/>
  <rect x="95" y="939" width="82" height="12" rx="6" fill="#ffffff"/>

  <rect x="272" y="0" width="1168" height="72" fill="#ffffff" stroke="#e2e8f0"/>
  <rect x="304" y="26" width="104" height="18" rx="9" fill="#0f172a"/>
  <rect x="1256" y="24" width="58" height="24" rx="12" fill="#dbeafe"/>
  <rect x="1328" y="27" width="76" height="18" rx="9" fill="#cbd5e1"/>

  <g transform="translate(304 104)">
    <rect width="150" height="26" rx="13" fill="#0f172a"/>
    <rect y="38" width="260" height="14" rx="7" fill="#64748b"/>
  </g>

  <g filter="url(#shadow)">
    <g transform="translate(304 184)">
      <rect width="235" height="116" rx="10" fill="#ffffff" stroke="#e2e8f0"/>
      <rect x="20" y="24" width="46" height="46" rx="12" fill="#dbeafe"/>
      <rect x="82" y="28" width="96" height="11" rx="5.5" fill="#64748b"/>
      <rect x="82" y="52" width="44" height="30" rx="8" fill="#0f172a"/>
      <rect x="82" y="88" width="72" height="10" rx="5" fill="#94a3b8"/>
    </g>
    <g transform="translate(557 184)">
      <rect width="235" height="116" rx="10" fill="#ffffff" stroke="#e2e8f0"/>
      <rect x="20" y="24" width="46" height="46" rx="12" fill="#dcfce7"/>
      <rect x="82" y="28" width="78" height="11" rx="5.5" fill="#64748b"/>
      <rect x="82" y="52" width="44" height="30" rx="8" fill="#0f172a"/>
      <rect x="82" y="88" width="66" height="10" rx="5" fill="#94a3b8"/>
    </g>
    <g transform="translate(304 318)">
      <rect width="235" height="116" rx="10" fill="#ffffff" stroke="#e2e8f0"/>
      <rect x="20" y="24" width="46" height="46" rx="12" fill="#d1fae5"/>
      <rect x="82" y="28" width="118" height="11" rx="5.5" fill="#64748b"/>
      <rect x="82" y="52" width="28" height="30" rx="8" fill="#0f172a"/>
      <rect x="82" y="88" width="58" height="10" rx="5" fill="#94a3b8"/>
    </g>
    <g transform="translate(557 318)">
      <rect width="235" height="116" rx="10" fill="#ffffff" stroke="#e2e8f0"/>
      <rect x="20" y="24" width="46" height="46" rx="12" fill="#f1f5f9"/>
      <rect x="82" y="28" width="104" height="11" rx="5.5" fill="#64748b"/>
      <rect x="82" y="52" width="28" height="30" rx="8" fill="#0f172a"/>
      <rect x="82" y="88" width="58" height="10" rx="5" fill="#94a3b8"/>
    </g>
  </g>

  <g filter="url(#shadow)" transform="translate(828 184)">
    <rect width="548" height="250" rx="10" fill="#ffffff" stroke="#e2e8f0"/>
    <rect x="20" y="20" width="146" height="18" rx="9" fill="#0f172a"/>
    <rect x="20" y="48" width="192" height="12" rx="6" fill="#94a3b8"/>
    <rect x="486" y="20" width="42" height="22" rx="11" fill="#dcfce7" stroke="#86efac"/>
    <g transform="translate(20 78)">
      <rect width="508" height="36" rx="8" fill="#f8fafc" stroke="#e2e8f0"/>
      <rect x="12" y="10" width="118" height="10" rx="5" fill="#64748b"/>
      <rect x="338" y="10" width="72" height="10" rx="5" fill="#0f172a"/>
      <rect x="12" y="26" width="304" height="6" rx="3" fill="#e2e8f0"/>
      <rect x="12" y="26" width="118" height="6" rx="3" fill="#2563eb"/>
    </g>
    <g transform="translate(20 124)">
      <rect width="508" height="36" rx="8" fill="#f8fafc" stroke="#e2e8f0"/>
      <rect x="12" y="10" width="82" height="10" rx="5" fill="#64748b"/>
      <rect x="338" y="10" width="54" height="10" rx="5" fill="#0f172a"/>
      <rect x="12" y="26" width="304" height="6" rx="3" fill="#e2e8f0"/>
      <rect x="12" y="26" width="132" height="6" rx="3" fill="#22c55e"/>
    </g>
    <g transform="translate(20 170)">
      <rect width="508" height="36" rx="8" fill="#f8fafc" stroke="#e2e8f0"/>
      <rect x="12" y="10" width="62" height="10" rx="5" fill="#64748b"/>
      <rect x="338" y="10" width="54" height="10" rx="5" fill="#0f172a"/>
      <rect x="12" y="26" width="304" height="6" rx="3" fill="#e2e8f0"/>
      <rect x="12" y="26" width="86" height="6" rx="3" fill="#22c55e"/>
    </g>
  </g>

  <g filter="url(#shadow)" transform="translate(304 472)">
    <rect width="1072" height="418" rx="10" fill="#ffffff" stroke="#e2e8f0"/>
    <rect x="22" y="20" width="168" height="18" rx="9" fill="#0f172a"/>
    <rect x="22" y="50" width="292" height="12" rx="6" fill="#94a3b8"/>
    <rect x="632" y="22" width="260" height="38" rx="8" fill="#ffffff" stroke="#cbd5e1"/>
    <rect x="672" y="36" width="118" height="10" rx="5" fill="#94a3b8"/>
    <rect x="904" y="22" width="146" height="38" rx="8" fill="#f1f5f9" stroke="#cbd5e1"/>
    <rect x="912" y="30" width="42" height="22" rx="6" fill="#ffffff"/>
    <rect x="968" y="36" width="36" height="10" rx="5" fill="#64748b"/>
    <rect x="1015" y="36" width="26" height="10" rx="5" fill="#64748b"/>

    <rect x="0" y="82" width="1072" height="42" fill="#f8fafc"/>
    <rect x="22" y="98" width="52" height="10" rx="5" fill="#64748b"/>
    <rect x="486" y="98" width="38" height="10" rx="5" fill="#64748b"/>
    <rect x="622" y="98" width="82" height="10" rx="5" fill="#64748b"/>
    <rect x="810" y="98" width="52" height="10" rx="5" fill="#64748b"/>

    <g transform="translate(0 124)">
      <rect width="1072" height="70" fill="#ffffff"/>
      <rect x="22" y="18" width="168" height="14" rx="7" fill="#0f172a"/>
      <rect x="22" y="42" width="108" height="16" rx="6" fill="#f8fafc" stroke="#cbd5e1"/>
      <rect x="146" y="42" width="110" height="16" rx="6" fill="#dbeafe"/>
      <rect x="486" y="24" width="62" height="20" rx="8" fill="#dbeafe"/>
      <rect x="622" y="24" width="126" height="12" rx="6" fill="#94a3b8"/>
      <rect x="810" y="22" width="54" height="22" rx="11" fill="#dcfce7"/>
      <rect x="990" y="22" width="54" height="22" rx="6" fill="#eff6ff" stroke="#bfdbfe"/>
    </g>
    <line x1="0" y1="194" x2="1072" y2="194" stroke="#e2e8f0"/>
    <g transform="translate(0 195)">
      <rect width="1072" height="70" fill="#ffffff"/>
      <rect x="22" y="18" width="140" height="14" rx="7" fill="#0f172a"/>
      <rect x="22" y="42" width="108" height="16" rx="6" fill="#f8fafc" stroke="#cbd5e1"/>
      <rect x="146" y="42" width="84" height="16" rx="6" fill="#dbeafe"/>
      <rect x="486" y="24" width="58" height="20" rx="8" fill="#dcfce7"/>
      <rect x="622" y="24" width="108" height="12" rx="6" fill="#94a3b8"/>
      <rect x="810" y="22" width="54" height="22" rx="11" fill="#dcfce7"/>
      <rect x="990" y="22" width="54" height="22" rx="6" fill="#eff6ff" stroke="#bfdbfe"/>
    </g>
    <line x1="0" y1="265" x2="1072" y2="265" stroke="#e2e8f0"/>
    <g transform="translate(0 266)">
      <rect width="1072" height="70" fill="#ffffff"/>
      <rect x="22" y="18" width="156" height="14" rx="7" fill="#0f172a"/>
      <rect x="22" y="42" width="108" height="16" rx="6" fill="#f8fafc" stroke="#cbd5e1"/>
      <rect x="146" y="42" width="98" height="16" rx="6" fill="#dbeafe"/>
      <rect x="486" y="24" width="58" height="20" rx="8" fill="#dcfce7"/>
      <rect x="622" y="24" width="118" height="12" rx="6" fill="#94a3b8"/>
      <rect x="810" y="22" width="54" height="22" rx="11" fill="#fee2e2"/>
      <rect x="990" y="22" width="54" height="22" rx="6" fill="#eff6ff" stroke="#bfdbfe"/>
    </g>
    <rect x="18" y="356" width="334" height="34" rx="8" fill="#f8fafc" stroke="#cbd5e1" stroke-dasharray="6 5"/>
    <rect x="44" y="368" width="226" height="10" rx="5" fill="#94a3b8"/>
  </g>

  <rect x="1090" y="914" width="286" height="34" rx="8" fill="#fef3c7" stroke="#f59e0b"/>
  <rect x="1108" y="926" width="250" height="10" rx="5" fill="#92400e"/>
</svg>
